<?xml version="1.0" encoding="UTF-8"?>
<svg width="400" height="400" version="1.1" viewBox="0 0 1250 1250" xmlns="http://www.w3.org/2000/svg">
 <g fill="#ccc">
   <path id="Selection" d="m301.02 336.93s60.385 0.11301 63.098-0.80049c8.2686-2.797 11.602-10.793 10.039-18.976-0.97943-5.1326-135.15-236.38-135.15-236.38-4.9442-8.6171-10.039-18.882-21.802-17.705-9.3516 0.93234-12.384 7.7224-16.575 14.88 0 0-136.55 236.07-137.36 239.88-1.6104 7.6282 3.3809 16.029 10.783 18.345 2.7217 0.84758 53.68 0.7534 53.68 0.7534 2.0624 0 5.4999-0.19776 7.2421 0.9606 3.3338 2.2225 2.1755 14.795 2.1755 18.816v325.85c0.0188 13.957 6.2156 18.816 19.777 18.835 0 0 129.47 0.11301 132.79-1.0454 12.469-4.3415 11.301-15.69 11.301-26.266v-337.15z" stroke-width=".94176"/>
   <path d="m1113.5 913.07s60.385-0.113 63.098 0.8005c8.2686 2.797 11.602 10.793 10.039 18.976-0.9795 5.1326-135.15 236.38-135.15 236.38-4.9442 8.617-10.039 18.882-21.802 17.705-9.3516-0.9323-12.384-7.7224-16.575-14.88 0 0-136.55-236.07-137.36-239.88-1.6104-7.6283 3.3809-16.029 10.783-18.346 2.7216-0.8475 53.68-0.7534 53.68-0.7534 2.0624 0 5.4998 0.1978 7.2421-0.9606 3.3339-2.2225 2.1755-14.795 2.1755-18.816v-325.85c0.019-13.957 6.2156-18.816 19.777-18.835 0 0 129.47-0.11301 132.79 1.0454 12.469 4.3415 11.301 15.69 11.301 26.266v337.15z" stroke-width=".94176"/>
   <path d="m623.97 840.49c26.019 38.499 67.286 57.16 110.72 33.862 21.36-11.464 25.696-24.197 34.808-29.203 6.0666-3.3447 12.364-1.7531 25.166-7.3583 19.007-8.3271 32.224-23.966 38.983-43.435 5.6744-16.354 4.1059-29.295 5.3976-33.631 2.9756-9.8726 16.885-18.776 19.007-47.102 1.6839-22.144-9.642-38.037-9.4574-46.134 0.2076-8.3733 7.9119-16.078 9.4805-39.214 0.78426-11.764-3.1371-29.064-9.1576-39.214-3.7368-6.2972-11.556-14.371-13.01-20.76-1.2225-5.3976 1.707-14.717 2.1683-20.76 1.3148-17.531-6.92-40.021-18.453-53.054l-20.299-19.307c-3.2755-5.3284-1.6377-11.487-3.5754-19.907-3.2294-14.094-12.479-27.08-24.151-35.431l-19.884-11.833c-7.1507-6.5048-11.372-20.045-28.557-31.256-33.47-21.798-76.766-11.187-96.881 23.159-6.8278-7.4044-12.641-14.878-20.783-21.268-23.943-17.485-56.468-17.715-80.711 0-16.746 11.672-19.491 23.09-26.273 29.364-7.9811 7.3583-30.471 10.749-41.843 40.344-5.3284 13.817-1.707 20.23-5.7436 26.827-2.1222 3.437-12.11 10.911-16.008 14.786-8.6501 8.6039-13.771 16.147-17.992 27.588-3.3216 9.0653-5.6283 20.322-4.7748 29.987 0.53054 5.9512 3.3908 15.478 2.1914 20.76-2.3067 10.172-15.524 17.069-19.837 39.214-3.5062 13.632-2.9756 25.72 0 39.214l7.0354 20.76c0.36908 7.8658-9.7573 22.121-9.7573 41.52 0 28.857 15.962 40.482 19.468 52.085 1.9376 6.3665-2.4912 22.329 11.764 47.102 8.6962 15.132 20.668 25.581 37.184 31.394 0 0 20.553 5.5591 20.553 5.5591 9.1114 5.0055 13.448 17.738 34.808 29.203 36.907 19.791 92.129 7.7274 108.41-33.862z" stroke-width="2.3067"/>
  <rect x="562.44" y="62.522" width="625" height="109.38" stroke-width="3.125"/>
  <rect x="60.562" y="1075.9" width="625" height="109.38" stroke-width="3.125"/>
  <rect x="60.562" y="884.76" width="406.25" height="109.38" stroke-width="2.9092"/>
  <rect x="781.19" y="254.82" width="406.25" height="109.38" stroke-width="3.563"/>
 </g>
</svg>
